<svg viewBox="0 0 640 512" fill="none"
    xmlns="http://www.w3.org/2000/svg">
    <rect x="442" y="151" width="62" height="113" fill="#F56565"/>
    <path d="M593.8 59.1001H46.2C20.7 59.1001 0 79.8001 0 105.2V406.7C0 432.2 20.7 452.9 46.2 452.9H593.9C619.4 452.9 640.1 432.2 640 406.8V105.2C640 79.8001 619.3 59.1001 593.8 59.1001V59.1001ZM338.5 360.6H277V240.6L215.5 317.5L154 240.6V360.6H92.3V151.4H153.8L215.3 228.3L276.8 151.4H338.3V360.6H338.5ZM473.8 363.7L381.5 256H443V151.4H504.5V256H566L473.8 363.7Z" fill="black"/>
    <rect x="378" y="256" width="192" height="27" fill="black"/>
    <path d="M532.926 245.684C517.407 232.445 494.326 234.827 480.081 249.539L474.502 255.294L468.923 249.539C454.707 234.827 431.598 232.445 416.078 245.684C398.294 260.878 397.359 288.149 413.275 304.619L468.074 361.257C471.613 364.914 477.362 364.914 480.902 361.257L535.701 304.619C551.645 288.149 550.711 260.878 532.926 245.684V245.684Z" fill="#E53E3E"/>
</svg>
